<svg id="Layer_3" enable-background="new 0 0 64 64" height="512" viewBox="0 0 64 64" width="512" xmlns="http://www.w3.org/2000/svg"><g><path d="m20 9v22c0 .552.447 1 1 1h22c.553 0 1-.448 1-1v-22c0-.552-.447-1-1-1h-22c-.553 0-1 .448-1 1zm2 1h8v4h-2v2h3c.553 0 1-.448 1-1v-1h6v2h2v-3c0-.552-.447-1-1-1h-7v-2h10v20h-20z"/><path d="m23 27h2v2h-2z"/><path d="m27 24h-4v2h3v3h2v-4c0-.552-.447-1-1-1z"/><path d="m34 27h-5v2h6c.553 0 1-.448 1-1v-5h-2z"/><path d="m31 21v5h2v-4h4v-2h-5c-.553 0-1 .448-1 1z"/><path d="m35 15h2v2h-2z"/><path d="m33 17h2v2h-2z"/><path d="m28 22h2v2h-2z"/><path d="m26 20h2v2h-2z"/><path d="m25 19h4v-2h-2v-2c0-.552-.447-1-1-1h-3v2h2v1h-1c-.553 0-1 .448-1 1v5h2z"/><path d="m30 17h2v2h-2z"/><path d="m39 27h-2v2h3c.553 0 1-.448 1-1v-5h-2z"/><path d="m40 17h-3v2h2v2h2v-3c0-.552-.447-1-1-1z"/><path d="m23 11h2v2h-2z"/><path d="m26 11h2v2h-2z"/><path d="m19 7h5v-2h-6c-.553 0-1 .448-1 1v6h2z"/><path d="m46 5h-6v2h5v5h2v-6c0-.552-.447-1-1-1z"/><path d="m45 33h-5v2h6c.553 0 1-.447 1-1v-6h-2z"/><path d="m18 35h6v-2h-5v-5h-2v6c0 .553.447 1 1 1z"/><path d="m46 1h-28c-2.757 0-5 2.243-5 5v52c0 2.757 2.243 5 5 5h28c2.757 0 5-2.243 5-5v-52c0-2.757-2.243-5-5-5zm3 57c0 1.654-1.346 3-3 3h-28c-1.654 0-3-1.346-3-3v-52c0-1.654 1.346-3 3-3h28c1.654 0 3 1.346 3 3z"/><path d="m28 58h8v2h-8z"/><path d="m45 55h-26v-18h-2v19c0 .553.447 1 1 1h28c.553 0 1-.447 1-1v-19h-2z"/></g></svg>