<svg id="Capa_1" enable-background="new 0 0 512 512" height="512" viewBox="0 0 512 512" width="512" xmlns="http://www.w3.org/2000/svg"><g><g><path d="m403.563 504.5h-295.126c-10.78 0-20.732-5.784-26.068-15.151l-36.369-63.849h420l-36.369 63.849c-5.336 9.367-15.288 15.151-26.068 15.151z" fill="#ecf4ff"/><path d="m436 425.5-36.369 63.849c-5.336 9.367-15.287 15.151-26.068 15.151h30c10.78 0 20.732-5.784 26.068-15.151l36.369-63.849z" fill="#ddeafb"/><path d="m473.5 395.5h-435c-8.284 0-15 6.716-15 15 0 8.284 6.716 15 15 15h435c8.284 0 15-6.716 15-15 0-8.284-6.716-15-15-15z" fill="#cbe2ff"/><path d="m473.5 395.5h-30c8.284 0 15 6.716 15 15s-6.716 15-15 15h30c8.284 0 15-6.716 15-15s-6.716-15-15-15z" fill="#bed8fb"/><path d="m428.445 395.5h-344.89v-64.767c0-3.866 3.134-7 7-7h330.889c3.866 0 7 3.134 7 7v64.767z" fill="#e17f85"/><path d="m421.445 323.733h-30c3.866 0 7 3.134 7 7v64.767h30v-64.767c0-3.866-3.134-7-7-7z" fill="#de646e"/><g><g fill="#de646e"><path d="m57.382 149.462 45.434-3.43-25.341-37.966c-1.947-2.916-6.315-2.616-7.846.539l-16.664 34.332c-1.532 3.156.927 6.788 4.417 6.525z"/><path d="m454.618 149.462-45.434-3.43 25.341-37.966c1.947-2.916 6.315-2.616 7.846.539l16.664 34.332c1.532 3.156-.927 6.788-4.417 6.525z"/></g><path d="m113.226 192.945c90.658 41.343 194.89 41.343 285.548 0 18.08-8.245 25.034-30.396 14.923-47.539-9.051-15.346-26.819-22.162-43.471-14.593-72.551 32.976-155.899 32.976-228.451 0-16.525-7.511-34.426-.743-43.472 14.593-10.111 17.142-3.157 39.294 14.923 47.539z" fill="#e17f85"/><path d="m413.697 145.406c-6.926-11.743-18.957-18.481-31.686-17.612.59.841 1.154 1.71 1.686 2.612 10.111 17.142 3.157 39.293-14.923 47.539-83.859 38.243-179.332 41.105-264.933 8.599 2.663 2.58 5.802 4.767 9.385 6.401 90.658 41.343 194.89 41.343 285.548 0 18.08-8.245 25.034-30.397 14.923-47.539z" fill="#de646e"/></g><circle cx="256" cy="84" fill="#b3e59f" r="35"/><path d="m256 49c-5.369 0-10.453 1.212-15 3.373 11.824 5.617 20 17.666 20 31.627s-8.176 26.01-20 31.627c4.547 2.16 9.631 3.373 15 3.373 19.33 0 35-15.67 35-35s-15.67-35-35-35z" fill="#95d6a4"/><path d="m325.105 323.733h-138.21c-17.101 0-30.964-13.863-30.964-30.964 0-17.101 13.863-30.964 30.964-30.964h138.211c17.101 0 30.964 13.863 30.964 30.964-.001 17.101-13.864 30.964-30.965 30.964z" fill="#c6855b"/><path d="m325.105 261.805h-30c17.101 0 30.964 13.863 30.964 30.964 0 17.101-13.863 30.964-30.964 30.964h30c17.101 0 30.964-13.863 30.964-30.964 0-17.101-13.863-30.964-30.964-30.964z" fill="#c17e4e"/></g><path d="m473.5 388h-37.556v-57.267c0-7.995-6.505-14.5-14.5-14.5h-65.892c5.02-6.499 8.017-14.636 8.017-23.464 0-21.21-17.255-38.465-38.464-38.465h-61.605v-22.913c47.256-1.009 94.359-11.545 138.387-31.623 10.539-4.807 18.581-13.911 22.065-24.978 2.06-6.542 2.409-13.433 1.149-20.042l28.94 2.188c4.247.336 8.444-1.671 10.863-5.223 2.426-3.561 2.764-8.179.883-12.051l-16.667-34.322c-1.879-3.882-5.717-6.474-10.014-6.765-4.305-.293-8.441 1.757-10.813 5.328l-17.598 26.357c-12.002-10.283-28.616-13.075-43.572-6.277-8.73 3.967-17.769 7.503-26.866 10.509-3.933 1.3-6.067 5.541-4.768 9.475 1.299 3.931 5.534 6.066 9.475 4.768 9.604-3.174 19.147-6.906 28.365-11.095 12.571-5.717 26.518-.956 33.908 11.575 3.746 6.352 4.624 14.031 2.407 21.07-2.241 7.121-7.207 12.744-13.982 15.834-44.22 20.167-91.681 30.283-139.153 30.355-.169-.012-.337-.026-.509-.026s-.34.014-.509.026c-47.472-.072-94.933-10.188-139.153-30.355-6.775-3.09-11.741-8.713-13.982-15.834-2.217-7.039-1.339-14.719 2.407-21.07 7.392-12.529 21.337-17.29 33.908-11.575 53.87 24.484 113.069 31.487 171.195 20.245 4.066-.786 6.727-4.721 5.939-8.787-.786-4.066-4.717-6.73-8.787-5.939-14.473 2.798-29.016 4.391-43.519 4.814v-22.151c19.868-3.554 35-20.949 35-41.824s-15.132-38.27-35-41.824v-34.674c0-4.143-3.357-7.5-7.5-7.5s-7.5 3.357-7.5 7.5v34.676c-19.868 3.554-35 20.949-35 41.824s15.132 38.27 35 41.824v22.169c-35.559-.959-70.646-9.019-103.622-24.008-14.959-6.798-31.572-4.006-43.573 6.277l-17.588-26.341c-2.382-3.587-6.527-5.639-10.823-5.344-4.297.291-8.135 2.883-10.011 6.757l-16.669 34.329c-1.882 3.873-1.544 8.491.882 12.052 2.422 3.555 6.604 5.55 10.85 5.224l28.954-2.188c-1.261 6.609-.911 13.5 1.149 20.042 3.484 11.066 11.526 20.171 22.065 24.978 44.028 20.078 91.13 30.614 138.387 31.623v22.913h-61.605c-21.209 0-38.464 17.255-38.464 38.465 0 8.828 2.997 16.965 8.017 23.464h-65.892c-7.995 0-14.5 6.505-14.5 14.5v57.264h-37.556c-12.406 0-22.5 10.094-22.5 22.5 0 13.203 12.153 24.256 25.641 22.5l34.211 60.061c6.655 11.682 19.141 18.939 32.586 18.939h295.125c13.444 0 25.931-7.257 32.585-18.939l34.211-60.061c13.259.987 25.641-8.498 25.641-22.5 0-12.406-10.094-22.5-22.5-22.5zm-35.612-271.451 12.16 25.044-27.494-2.078zm-209.388-32.549c0-15.163 12.337-27.5 27.5-27.5s27.5 12.337 27.5 27.5-12.337 27.5-27.5 27.5-27.5-12.337-27.5-27.5zm-166.548 57.593 12.16-25.044 15.334 22.966zm358.992 189.64v56.767h-31.244l-25.911-56.767zm-47.733 56.767h-58.511l-25.911-56.767h58.511zm-75 0h-58.511l-25.911-56.767h58.511zm-111.316-118.695h138.211c12.938 0 23.464 10.526 23.464 23.465s-10.525 23.464-23.464 23.464h-138.211c-12.938 0-23.464-10.525-23.464-23.464s10.525-23.465 23.464-23.465zm10.405 61.928 25.911 56.767h-58.511l-25.911-56.767zm-106.244 0h31.244l25.911 56.767h-57.155zm382.444 86.767h-331.912c-4.143 0-7.5 3.357-7.5 7.5s3.357 7.5 7.5 7.5h311.509l-29.983 52.637c-3.993 7.009-11.484 11.363-19.552 11.363h-295.124c-8.067 0-15.559-4.354-19.552-11.363l-29.983-52.637h47.685c4.143 0 7.5-3.357 7.5-7.5s-3.357-7.5-7.5-7.5h-60.705c-.019 0-.039 0-.058 0h-7.325c-4.136 0-7.5-3.364-7.5-7.5s3.364-7.5 7.5-7.5h435c4.136 0 7.5 3.364 7.5 7.5s-3.364 7.5-7.5 7.5z"/></g></svg>