<svg id="Capa_1" enable-background="new 0 0 512 512" height="512" viewBox="0 0 512 512" width="512" xmlns="http://www.w3.org/2000/svg"><g><path d="m256 286c8.276 0 15-6.724 15-15v-120c0-8.276-6.724-15-15-15s-15 6.724-15 15v120c0 8.276 6.724 15 15 15z"/><circle cx="256" cy="391" r="15"/><path d="m90 496h332c49.629 0 90-40.371 90-90 0-15.132-3.838-30.117-11.104-43.315l-166-300c0-.015 0-.015 0-.015-15.834-28.784-46.069-46.67-78.896-46.67-32.842 0-63.076 17.886-78.896 46.685l-166 300c-7.266 13.198-11.104 28.183-11.104 43.315 0 49.629 40.371 90 90 90zm121-345c0-24.814 20.186-45 45-45s45 20.186 45 45v120c0 24.814-20.186 45-45 45s-45-20.186-45-45zm45 195c24.814 0 45 20.186 45 45s-20.186 45-45 45-45-20.186-45-45 20.186-45 45-45z"/></g></svg>