<svg id="Layer_3" enable-background="new 0 0 64 64" height="512" viewBox="0 0 64 64" width="512" xmlns="http://www.w3.org/2000/svg"><g><path d="m57.399 18.015-25.985 25.985c-.646.645-1.503 1-2.414 1s-1.769-.355-2.414-1l-11.293-11.293c-.391-.391-.391-1.023 0-1.414l3-3c.391-.391 1.023-.391 1.414 0l9.293 9.293 24.75-24.75c-5.513-6.255-13.394-9.836-21.75-9.836-15.99 0-29 13.009-29 29s13.01 29 29 29 29-13.009 29-29c0-4.919-1.246-9.716-3.601-13.985zm-25.399-13.015c7.004 0 13.643 2.67 18.692 7.517l-1.385 1.443c-4.675-4.488-10.823-6.96-17.307-6.96-.322 0-.643.006-.962.019l-.076-1.999c.345-.013.69-.02 1.038-.02zm-3.153.183.23 1.986c-.649.076-1.302.178-1.938.304l-.389-1.962c.688-.136 1.394-.247 2.097-.328zm-4.16.82.541 1.926c-.63.177-1.258.38-1.867.605l-.693-1.876c.658-.243 1.338-.464 2.019-.655zm-3.981 1.465.838 1.816c-.596.274-1.185.575-1.75.892l-.979-1.744c.612-.343 1.248-.667 1.891-.964zm-3.698 2.074 1.111 1.662c-.538.36-1.073.749-1.591 1.156l-1.236-1.571c.557-.438 1.135-.858 1.716-1.247zm-3.329 2.625 1.357 1.469c-.479.444-.947.911-1.391 1.389l-1.467-1.358c.478-.516.982-1.021 1.501-1.5zm-2.879 3.111 1.568 1.24c-.406.514-.795 1.048-1.155 1.587l-1.662-1.111c.389-.583.809-1.16 1.249-1.716zm-2.359 3.522 1.744.98c-.316.562-.617 1.151-.895 1.749l-1.814-.84c.299-.646.624-1.281.965-1.889zm-1.779 3.849 1.877.691c-.227.615-.431 1.244-.606 1.867l-1.926-.542c.19-.673.41-1.352.655-2.016zm-1.147 4.08 1.961.39c-.127.642-.229 1.294-.305 1.938l-1.986-.23c.081-.698.191-1.404.33-2.098zm26.485 32.271c-14.888 0-27-12.112-27-27 0-.348.006-.694.02-1.038l1.998.076c-.012.319-.018.64-.018.962 0 13.785 11.215 25 25 25 .322 0 .643-.006.962-.019l.076 1.999c-.345.013-.69.02-1.038.02zm3.153-.183-.23-1.986c.649-.076 1.302-.178 1.938-.304l.389 1.962c-.688.136-1.394.247-2.097.328zm4.16-.82-.541-1.926c.63-.177 1.258-.38 1.867-.605l.693 1.876c-.658.243-1.338.464-2.019.655zm3.981-1.465-.838-1.816c.596-.274 1.185-.575 1.75-.892l.979 1.744c-.612.343-1.248.667-1.891.964zm3.698-2.074-1.111-1.662c.538-.36 1.073-.749 1.591-1.156l1.236 1.571c-.557.438-1.135.858-1.716 1.247zm3.329-2.625-1.357-1.469c.479-.444.947-.911 1.391-1.389l1.467 1.358c-.478.516-.982 1.021-1.501 1.5zm2.879-3.111-1.568-1.24c.406-.514.795-1.048 1.155-1.587l1.662 1.111c-.389.583-.809 1.16-1.249 1.716zm2.359-3.522-1.744-.98c.316-.562.617-1.151.895-1.749l1.814.84c-.299.646-.624 1.281-.965 1.889zm1.779-3.849-1.877-.691c.227-.615.431-1.244.606-1.867l1.926.542c-.19.673-.41 1.352-.655 2.016zm1.147-4.08-1.961-.39c.127-.642.229-1.294.305-1.938l1.986.23c-.081.698-.191 1.404-.33 2.098zm-1.503-4.309c.012-.319.018-.64.018-.962 0-3.333-.645-6.567-1.916-9.615l1.846-.771c1.374 3.294 2.07 6.788 2.07 10.386 0 .348-.006.694-.02 1.038z"/><path d="m28.293 39.707-9.293-9.293-1.586 1.586 10.586 10.586c.534.534 1.464.535 2 0l30.586-30.586-1.586-1.586-29.293 29.293c-.391.391-1.023.391-1.414 0z"/></g></svg>