<svg id="Capa_1" enable-background="new 0 0 512 512" height="512" viewBox="0 0 512 512" width="512" xmlns="http://www.w3.org/2000/svg"><g><path d="m406 30h-45v-15c0-8.284-6.716-15-15-15s-15 6.716-15 15v15h-30v-15c0-8.284-6.716-15-15-15s-15 6.716-15 15v15h-30v-15c0-8.284-6.716-15-15-15s-15 6.716-15 15v15h-30v-15c0-8.284-6.716-15-15-15s-15 6.716-15 15v15h-45c-8.284 0-15 6.716-15 15v452c0 8.284 6.716 15 15 15h300c8.284 0 15-6.716 15-15v-452c0-8.284-6.716-15-15-15zm-285 391v-270h270v180h-75c-8.284 0-15 6.716-15 15v30c0 24.813-20.187 45-45 45zm210-45v-15h38.787l-21.967 21.967c-6.395 6.395-13.344 12.033-20.731 16.885 2.523-7.498 3.911-15.514 3.911-23.852zm-180-316v15c0 8.284 6.716 15 15 15s15-6.716 15-15v-15h30v15c0 8.284 6.716 15 15 15s15-6.716 15-15v-15h30v15c0 8.284 6.716 15 15 15s15-6.716 15-15v-15h30v15c0 8.284 6.716 15 15 15s15-6.716 15-15v-15h30v61h-270v-61zm-30 422v-31h135c42.698 0 82.841-16.627 113.033-46.82l21.967-21.967v99.787z"/><path d="m256 181c-24.813 0-45 20.187-45 45 0 8.284 6.716 15 15 15s15-6.716 15-15c0-8.271 6.729-15 15-15s15 6.729 15 15c0 6.321-3.995 12-9.94 14.129-11.999 4.298-20.06 15.747-20.06 28.489v2.382c0 8.284 6.716 15 15 15s15-6.716 15-15v-2.381c0-.106.075-.21.177-.247 17.838-6.39 29.823-23.418 29.823-42.372 0-24.813-20.187-45-45-45z"/><circle cx="256" cy="316" r="15"/></g></svg>