<svg id="Capa_1" enable-background="new 0 0 64 64" height="512" viewBox="0 0 64 64" width="512" xmlns="http://www.w3.org/2000/svg"><g id="Feedback_1_" opacity=".93"><path d="m35.508 20.823h20v6.003h-20z" transform="matrix(.5 -.866 .866 .5 2.121 51.323)"/><path d="m44.07 36.13-8.45 6.66c-.433.343-1.062.27-1.405-.163-.171-.216-.246-.494-.205-.767l1.54-10.66c.016-.127.056-.249.12-.36l12.03-20.84h-40.7c-1.655.005-2.995 1.345-3 3v32c.005 1.655 1.345 2.995 3 3h2c.552 0 1 .448 1 1v9.59l10.29-10.3c.191-.184.445-.288.71-.29h30c1.655-.005 2.995-1.345 3-3v-25.91l-9.67 16.75c-.061.111-.26.29-.26.29zm-36.07-22.13h34v2h-34zm0 14h24v2h-24zm0 4h24v2h-24zm0 4h24v2h-24zm0 4h24v2h-24zm22 6h-22v-2h22zm4 0h-2v-2h2z"/><path d="m58.7 6.37c-.069-.258-.238-.478-.47-.61l-3.46-2c-.23-.132-.503-.168-.76-.1-.257.072-.475.24-.61.47l-4.5 7.79 5.2 3 4.5-7.79c.132-.23.168-.503.1-.76z"/><path d="m36.35 39.67 5.33-4.2-4.36-2.53z"/></g></svg>