<?xml version="1.0" encoding="iso-8859-1"?>
<!-- Generator: Adobe Illustrator 19.0.0, SVG Export Plug-In . SVG Version: 6.00 Build 0)  -->
<svg version="1.1" id="Capa_1" xmlns="http://www.w3.org/2000/svg" xmlns:xlink="http://www.w3.org/1999/xlink" x="0px" y="0px"
	 viewBox="0 0 512 512" style="enable-background:new 0 0 512 512;" xml:space="preserve">
<g>
	<g>
		<path d="M391.119,0H120.881c-1.941,0-3.696,0.084-5.345,0.255C88.532,2.999,68.168,25.54,68.168,52.688v322.203
			c0,4.199,3.404,7.604,7.604,7.604c4.201,0,7.604-3.405,7.604-7.604V52.688c0-19.314,14.486-35.351,33.714-37.304
			c1.141-0.119,2.381-0.176,3.791-0.176h270.238c20.68,0,37.505,16.813,37.505,37.48v406.624c0,20.666-16.824,37.479-37.505,37.479
			H289.051c6.569-7.636,10.554-17.555,10.554-28.395c0-10.838-3.984-20.757-10.552-28.393h76.298
			c20.927,0,37.951-17.038,37.951-37.98v-292.08c0-20.926-17.024-37.95-37.951-37.95H146.656c-20.927,0-37.951,17.038-37.951,37.98
			v292.08c0,20.926,17.024,37.95,37.951,37.95h76.291c-6.569,7.636-10.552,17.554-10.552,28.393
			c0,10.839,3.985,20.759,10.554,28.395H120.881c-20.68,0-37.505-16.813-37.505-37.479v-59.072c0-4.2-3.404-7.604-7.604-7.604
			c-4.201,0-7.604,3.405-7.604,7.604v59.072c0,29.052,23.647,52.687,52.713,52.687h270.238c29.066,0,52.713-23.636,52.713-52.687
			V52.688C443.833,23.636,420.185,0,391.119,0z M146.656,424.796c-12.54,0-22.741-10.202-22.741-22.741v-292.08
			c0-12.556,10.203-22.772,22.742-22.772H365.35c12.54,0,22.742,10.202,22.742,22.741v292.08c0,12.556-10.203,22.772-22.742,22.772
			H256.136c-0.046,0-0.091-0.003-0.137-0.003c-0.046,0-0.091,0.003-0.137,0.003H146.656z M256.058,496.792h-0.117
			c-15.632-0.032-28.339-12.757-28.339-28.395c0-15.612,12.665-28.319,28.26-28.393h0.274c15.595,0.074,28.26,12.781,28.26,28.393
			C284.396,484.035,271.689,496.759,256.058,496.792z"/>
	</g>
</g>
<g>
	<g>
		<path d="M293.514,37.776h-75.027c-4.201,0-7.604,3.405-7.604,7.604c0,4.199,3.404,7.604,7.604,7.604h75.027
			c4.201,0,7.604-3.405,7.604-7.604C301.118,41.181,297.714,37.776,293.514,37.776z"/>
	</g>
</g>
<g>
	<g>
		<path d="M187.672,39.891c-2.638,2.52-3.053,6.68-1.059,9.711c1.859,2.82,5.514,4.046,8.707,2.992
			c3.234-1.068,5.421-4.277,5.207-7.684C200.131,38.578,192.257,35.514,187.672,39.891z"/>
	</g>
</g>
<g>
	<g>
		<path d="M287.752,115.117c-1.432-1.476-3.401-2.309-5.457-2.309H226.2c-2.056,0-4.025,0.832-5.457,2.309
			c-1.433,1.475-2.206,3.467-2.144,5.524l5.07,169.319c0.124,4.108,3.491,7.376,7.601,7.376h45.955c4.111,0,7.477-3.268,7.601-7.376
			l5.069-169.319C289.958,118.586,289.184,116.593,287.752,115.117z M269.847,282.127h-31.197l-4.615-154.11h40.427L269.847,282.127
			z"/>
	</g>
</g>
<g>
	<g>
		<path d="M254.248,314.24c-19.659,0-35.652,15.993-35.652,35.652s15.993,35.651,35.652,35.651
			c19.658,0,35.651-15.993,35.651-35.651C289.899,330.234,273.906,314.24,254.248,314.24z M254.248,370.335
			c-11.272,0-20.444-9.171-20.444-20.443s9.172-20.444,20.444-20.444c11.272,0,20.443,9.171,20.443,20.444
			S265.52,370.335,254.248,370.335z"/>
	</g>
</g>
<g>
</g>
<g>
</g>
<g>
</g>
<g>
</g>
<g>
</g>
<g>
</g>
<g>
</g>
<g>
</g>
<g>
</g>
<g>
</g>
<g>
</g>
<g>
</g>
<g>
</g>
<g>
</g>
<g>
</g>
</svg>
