<svg id="Layer_3" enable-background="new 0 0 64 64" height="512" viewBox="0 0 64 64" width="512" xmlns="http://www.w3.org/2000/svg"><path d="m62 57h-2.613l1.561-4.684c.103-.305.051-.641-.137-.901-.188-.261-.49-.415-.811-.415h-3v-4.568c.598.352 1.277.568 2 .568 2.206 0 4-1.794 4-4 0-1.446-.789-2.762-2.021-3.464-.235-2.54-2.378-4.536-4.979-4.536s-4.744 1.996-4.979 4.536c-1.232.702-2.021 2.018-2.021 3.464 0 2.206 1.794 4 4 4 .723 0 1.402-.216 2-.568v4.568h-3c-.321 0-.623.154-.812.415-.188.261-.239.597-.137.901l1.562 4.684h-3.613v-3c0-.553-.447-1-1-1h-1v-3c0-.553-.447-1-1-1h-5v-17.735l4.132 7.231c.178.312.51.504.868.504s.69-.192.868-.504l10.449-18.286c1.101-1.925 1.683-4.116 1.683-6.335 0-3.41-1.328-6.617-3.737-9.025l-.108-.11c-2.412-2.412-5.619-3.74-9.03-3.74h-.25c-3.411 0-6.618 1.328-9.032 3.743l-.103.103c-2.412 2.412-3.74 5.618-3.74 9.029 0 1.769.385 3.513 1.092 5.125h-32.092c-.553 0-1 .448-1 1v6c0 1.627.793 3.061 2 3.974v27.026h-1c-.553 0-1 .447-1 1v4c0 .553.447 1 1 1h60c.553 0 1-.447 1-1v-4c0-.553-.447-1-1-1zm-9-12c-1.103 0-2-.897-2-2 0-.843.541-1.598 1.347-1.878.413-.144.685-.54.67-.978-.002-.063-.009-.125-.017-.144 0-1.654 1.346-3 3-3s3 1.346 3.001 2.955c-.005.036-.017.154-.018.189-.015.438.257.834.67.978.806.28 1.347 1.035 1.347 1.878 0 1.103-.897 2-2 2-.843 0-1.598-.541-1.878-1.347-.141-.402-.52-.671-.944-.671-.054 0-.113.005-.18.013-.05-.005-.117-.012-.143-.012-.453-.04-.833.258-.978.67-.279.806-1.034 1.347-1.877 1.347zm.388 8h5.225l-1.333 4h-2.56zm-12.388 4v-2h6v2zm-30-36h6v5c0 1.654-1.346 3-3 3s-3-1.346-3-3zm8 0h6v5c0 1.654-1.346 3-3 3s-3-1.346-3-3zm8 0h6v5c0 1.654-1.346 3-3 3s-3-1.346-3-3zm8 0h.134l4.342 7.598c-.447.255-.948.402-1.476.402-1.654 0-3-1.346-3-3zm10 30v2h-4v-2zm-6.843-44.743.103-.103c2.034-2.034 4.738-3.154 7.615-3.154h.25c2.877 0 5.581 1.12 7.612 3.15l.108.11c2.035 2.034 3.155 4.739 3.155 7.615 0 1.872-.49 3.719-1.419 5.343l-9.581 16.766-9.581-16.767c-.929-1.623-1.419-3.471-1.419-5.342 0-2.876 1.12-5.581 3.157-7.618zm-35.157 14.743h6v5c0 1.654-1.346 3-3 3s-3-1.346-3-3zm2 9.899c.323.066.658.101 1 .101 1.641 0 3.088-.806 4-2.031.912 1.225 2.359 2.031 4 2.031s3.088-.806 4-2.031c.912 1.225 2.359 2.031 4 2.031s3.088-.806 4-2.031c.912 1.225 2.359 2.031 4 2.031s3.088-.806 4-2.031c.912 1.225 2.359 2.031 4 2.031.34 0 .674-.035 1-.101v26.101h-10v-4h1c1.654 0 3-1.346 3-3s-1.346-3-3-3h-4c-1.654 0-3 1.346-3 3s1.346 3 3 3h1v4h-10v-4h1c1.654 0 3-1.346 3-3s-1.346-3-3-3h-4c-1.654 0-3 1.346-3 3s1.346 3 3 3h1v4h-10zm21 20.101c-.552 0-1-.448-1-1s.448-1 1-1h4c.552 0 1 .448 1 1s-.448 1-1 1zm-12 0c-.552 0-1-.448-1-1s.448-1 1-1h4c.552 0 1 .448 1 1s-.448 1-1 1zm47 10h-58v-2h58z"/><path d="m37 44v-10c0-.553-.447-1-1-1h-28c-.553 0-1 .447-1 1v10c0 .553.447 1 1 1h28c.553 0 1-.447 1-1zm-16-1h-8v-4h8zm10 0h-4v-2h4zm4 0h-2v-3c0-.553-.447-1-1-1h-6c-.553 0-1 .447-1 1v3h-2v-5c0-.553-.447-1-1-1h-10c-.553 0-1 .447-1 1v5h-2v-8h26z"/><path d="m46 23c4.963 0 9-4.038 9-9s-4.037-9-9-9-9 4.038-9 9 4.037 9 9 9zm0-16c3.859 0 7 3.14 7 7s-3.141 7-7 7-7-3.14-7-7 3.141-7 7-7z"/></svg>