<svg id="Capa_1" enable-background="new 0 0 512 512" height="512" viewBox="0 0 512 512" width="512" xmlns="http://www.w3.org/2000/svg"><g><path d="m332.794 60.998-45.041 66.061c3.636 5.777 5.747 12.611 5.747 19.941 0 20.711-16.789 37.5-37.5 37.5s-37.5-16.789-37.5-37.5 16.789-37.5 37.5-37.5c2.382 0 4.709.232 6.967.656l41.512-60.885c-15.335-4.722-31.615-7.271-48.479-7.271s-33.143 2.549-48.479 7.271l-29.128-42.72c-4.667-6.844-13.997-8.61-20.844-3.943-6.845 4.667-8.61 13.999-3.943 20.844l25.6 37.546c-52.404 27.675-88.206 82.731-88.206 146.002v140c0 90.981 74.019 165 165 165s165-74.019 165-165v-140c0-63.27-35.802-118.327-88.206-146.002zm-6.794 336.002h-140c-8.284 0-15-6.716-15-15s6.716-15 15-15h140c8.284 0 15 6.716 15 15s-6.716 15-15 15zm0-60h-140c-8.284 0-15-6.716-15-15s6.716-15 15-15h140c8.284 0 15 6.716 15 15s-6.716 15-15 15zm0-60h-140c-8.284 0-15-6.716-15-15s6.716-15 15-15h140c8.284 0 15 6.716 15 15s-6.716 15-15 15z"/><path d="m358.394 23.452c4.667-6.845 2.901-16.177-3.943-20.844-6.846-4.667-16.178-2.901-20.844 3.943l-29.127 42.72c9.863 3.038 19.331 6.982 28.315 11.726z"/></g></svg>