<svg id="_x31__x2C_5" enable-background="new 0 0 24 24" height="512" viewBox="0 0 24 24" width="512"
     xmlns="http://www.w3.org/2000/svg" fill="#707070">
    <path d="m5.25 19.25c-2.895 0-5.25-2.355-5.25-5.25s2.355-5.25 5.25-5.25 5.25 2.355 5.25 5.25-2.355 5.25-5.25 5.25zm0-9c-2.067 0-3.75 1.682-3.75 3.75s1.683 3.75 3.75 3.75 3.75-1.682 3.75-3.75-1.683-3.75-3.75-3.75z"/>
    <path d="m21 24c-1.654 0-3-1.346-3-3s1.346-3 3-3 3 1.346 3 3-1.346 3-3 3zm0-4.5c-.827 0-1.5.673-1.5 1.5s.673 1.5 1.5 1.5 1.5-.673 1.5-1.5-.673-1.5-1.5-1.5z"/>
    <path d="m20 8c-2.206 0-4-1.794-4-4s1.794-4 4-4 4 1.794 4 4-1.794 4-4 4zm0-6.5c-1.379 0-2.5 1.122-2.5 2.5s1.121 2.5 2.5 2.5 2.5-1.122 2.5-2.5-1.121-2.5-2.5-2.5z"/>
    <path d="m8.064 7.845h10.082v1.5h-10.082z" transform="matrix(.832 -.555 .555 .832 -2.567 8.713)"/>
    <path d="m13.385 12.749h1.5v10.492h-1.5z" transform="matrix(.401 -.916 .916 .401 -8.02 23.722)"/>
</svg>