<svg xmlns="http://www.w3.org/2000/svg" width="105" height="105" viewBox="0 0 105 105">
  <g id="Grupo_452" data-name="Grupo 452" transform="translate(-308 -988)">
    <g id="Grupo_450" data-name="Grupo 450" transform="translate(-2 -103)">
      <g id="Elipse_3" data-name="Elipse 3" transform="translate(310 1091)" fill="#fff" stroke="#707070" stroke-width="3">
        <circle cx="52.5" cy="52.5" r="52.5" stroke="none"/>
        <circle cx="52.5" cy="52.5" r="51" fill="none"/>
      </g>
    </g>
    <g id="pin" transform="translate(251.667 1006)">
      <g id="Grupo_451" data-name="Grupo 451" transform="translate(85.333)">
        <path id="Trazado_183" data-name="Trazado 183" d="M108.666,0A23.336,23.336,0,0,0,88.134,34.422L107.39,69.248a1.459,1.459,0,0,0,2.552,0L129.206,34.41A23.337,23.337,0,0,0,108.666,0Zm0,35a11.667,11.667,0,1,1,11.667-11.667A11.68,11.68,0,0,1,108.666,35Z" transform="translate(-85.333)" fill="#707070"/>
      </g>
    </g>
  </g>
</svg>
