<svg height="512pt" viewBox="-66 0 512 512" width="512pt" xmlns="http://www.w3.org/2000/svg" fill="#707070">
    <path d="m190 0c-104.765625 0-190 85.035156-190 189.5625 0 52.777344 27.480469 120.5625 81.675781 201.476562 40.3125 60.1875 80.949219 105.78125 85.449219 110.78125 5.824219 6.46875 14.160156 10.179688 22.871094 10.179688 8.71875 0 17.054687-3.710938 22.875-10.179688 4.5-4.996093 45.125-50.566406 85.453125-110.78125 54.195312-80.914062 81.675781-148.699218 81.675781-201.476562-.003906-104.527344-85.234375-189.5625-190-189.5625zm83.398438 374.34375c-39.839844 59.484375-81.085938 105.476562-82.824219 107.40625-.066407.074219-.222657.25-.578125.25-.347656 0-.503906-.175781-.570313-.25-1.738281-1.929688-43-47.945312-82.824219-107.40625-50.113281-74.820312-76.601562-138.714844-76.601562-184.78125 0-87.984375 71.773438-159.5625 160-159.5625 88.222656 0 159.996094 71.578125 160 159.5625 0 46.066406-26.488281 109.960938-76.601562 184.78125zm0 0"/>
    <path d="m190 53.320312c-73.808594 0-133.855469 59.914063-133.855469 133.5625 0 73.644532 60.046875 133.558594 133.855469 133.558594s133.859375-59.914062 133.859375-133.558594c0-73.648437-60.050781-133.5625-133.859375-133.5625zm0 237.121094c-57.269531 0-103.855469-46.457031-103.855469-103.5625 0-57.101562 46.585938-103.558594 103.855469-103.558594s103.859375 46.457032 103.859375 103.5625c0 57.101563-46.589844 103.558594-103.859375 103.558594zm0 0"/>
    <path d="m190 167.167969c-8.285156 0-15 6.71875-15 15v67.386719c0 8.285156 6.714844 15 15 15s15-6.714844 15-15v-67.386719c0-8.28125-6.714844-15-15-15zm0 0"/>
    <path d="m190 107.125c-8.285156 0-15 6.71875-15 15v15c0 8.285156 6.714844 15 15 15s15-6.714844 15-15v-15c0-8.28125-6.714844-15-15-15zm0 0"/>
</svg>