<svg xmlns="http://www.w3.org/2000/svg" width="98" height="98" viewBox="0 0 98 98">
  <g id="Grupo_466" data-name="Grupo 466" transform="translate(-582 -1119)">
    <g id="Elipse_4" data-name="Elipse 4" transform="translate(582 1119)" fill="#fff" stroke="#707070" stroke-width="3">
      <circle cx="49" cy="49" r="49" stroke="none"/>
      <circle cx="49" cy="49" r="47.5" fill="none"/>
    </g>
    <g id="_021-multimedia" data-name="021-multimedia" transform="translate(595.734 1058)">
      <g id="Grupo_19" data-name="Grupo 19" transform="translate(0 86)">
        <path id="Trazado_3" data-name="Trazado 3" d="M63.164,86H6.836A6.844,6.844,0,0,0,0,92.836v32.813a6.844,6.844,0,0,0,6.836,6.836H63.164A6.844,6.844,0,0,0,70,125.648V92.836A6.847,6.847,0,0,0,63.164,86Zm-5.3,5.469L35,106,12.134,91.469Zm6.665,34.18a1.369,1.369,0,0,1-1.367,1.367H6.836a1.369,1.369,0,0,1-1.367-1.367V93.712L33.533,111.55a2.734,2.734,0,0,0,2.934,0L64.531,93.712Z" transform="translate(0 -86)" fill="#707070"/>
      </g>
    </g>
  </g>
</svg>
