<svg xmlns="http://www.w3.org/2000/svg" width="105" height="105" viewBox="0 0 105 105">
  <g id="Grupo_20" data-name="Grupo 20" transform="translate(-310 -1091)">
    <g id="Elipse_3" data-name="Elipse 3" transform="translate(310 1091)" fill="#fff" stroke-width="3">
      <circle cx="52.5" cy="52.5" r="52.5" stroke="none"/>
      <circle cx="52.5" cy="52.5" r="51" fill="none"/>
    </g>
    <g id="_018-tecnologia-1" data-name="018-tecnologia-1" transform="translate(327.5 1111)">
      <g id="Grupo_18" data-name="Grupo 18">
        <path id="Trazado_2" data-name="Trazado 2" d="M66.93,47.125,59.34,41.7a7.312,7.312,0,0,0-9.449.782l-4.448,4.448c-5.7-4.039-18.332-16.67-22.375-22.374l4.448-4.448a7.311,7.311,0,0,0,.782-9.449l-5.422-7.59a7.336,7.336,0,0,0-11.155-.923l-7,7c-6.294,6.294-6.289,14.811.014,23.368a142.343,142.343,0,0,0,32.75,32.749C45.4,71.1,54.1,72.033,60.85,65.283l7-7A7.336,7.336,0,0,0,66.93,47.125Zm-2.943,7.288-7,7c-4.857,4.857-10.749,3.508-16.259-.55A137.3,137.3,0,0,1,9.135,29.277c-4.057-5.508-5.408-11.4-.55-16.259l7-7a1.865,1.865,0,0,1,2.839.235l5.422,7.59a1.86,1.86,0,0,1-.2,2.4L17.73,22.163a2.734,2.734,0,0,0-.643,2.848c1.885,5.313,22.6,26.02,27.9,27.9a2.733,2.733,0,0,0,2.848-.643l5.919-5.919a1.861,1.861,0,0,1,2.4-.2l7.59,5.422A1.865,1.865,0,0,1,63.987,54.413Z" transform="translate(-0.001 0)" fill="#707070"/>
      </g>
    </g>
  </g>
</svg>
